<?xml version="1.0" standalone="no"?>
<!DOCTYPE svg PUBLIC "-//W3C//DTD SVG 20010904//EN"
 "http://www.w3.org/TR/2001/REC-SVG-20010904/DTD/svg10.dtd">
<svg version="1.0" xmlns="http://www.w3.org/2000/svg"
 width="97.000000pt" height="97.000000pt" viewBox="0 0 97.000000 97.000000"
 preserveAspectRatio="xMidYMid meet">
<metadata>
Created by potrace 1.15, written by Peter Selinger 2001-2017
</metadata>
<g transform="translate(0.000000,97.000000) scale(0.100000,-0.100000)"
fill="#000000" stroke="none">
<path d="M0 485 l0 -485 485 0 485 1 0 484 -1 484 -484 1 -484 0 -1 -485z
m887 403 c23 -21 23 -25 23 -240 0 -120 -3 -218 -7 -218 -5 0 -66 9 -138 20
-71 11 -136 20 -142 20 -7 0 -13 12 -13 26 0 36 -78 114 -114 114 -14 0 -26 6
-26 13 0 6 -9 71 -20 142 -11 72 -20 133 -20 138 0 4 98 7 217 7 209 0 218 -1
240 -22z m-498 -123 c6 -49 14 -105 17 -122 l6 -33 -153 0 -154 0 130 130 c71
71 132 126 136 122 3 -4 11 -47 18 -97z m133 -242 l28 -27 0 -193 c0 -106 -3
-193 -7 -193 -10 0 -433 423 -433 432 0 5 86 8 192 8 l192 0 28 -27z m243
-134 c50 -7 93 -15 97 -18 4 -4 -51 -65 -122 -136 l-130 -130 0 154 0 153 33
-6 c17 -3 73 -11 122 -17z"/>
</g>
</svg>
