<?xml version="1.0" standalone="no"?>
<!DOCTYPE svg PUBLIC "-//W3C//DTD SVG 20010904//EN"
 "http://www.w3.org/TR/2001/REC-SVG-20010904/DTD/svg10.dtd">
<svg version="1.0" xmlns="http://www.w3.org/2000/svg"
 width="256.000000pt" height="256.000000pt" viewBox="0 0 256.000000 256.000000"
 preserveAspectRatio="xMidYMid meet">
<metadata>
Created by potrace 1.15, written by Peter Selinger 2001-2017
</metadata>
<g transform="translate(0.000000,256.000000) scale(0.100000,-0.100000)"
fill="#000000" stroke="none">
<path d="M1325 1896 l0 -536 538 0 539 0 -7 78 c-46 530 -464 952 -980 988
l-90 7 0 -537z m285 332 c290 -92 514 -331 599 -637 l20 -71 -375 0 -374 0 0
371 0 371 33 -7 c17 -3 61 -16 97 -27z"/>
<path d="M955 2250 c-217 -46 -394 -141 -543 -292 -88 -91 -123 -135 -173
-220 -150 -256 -184 -584 -92 -867 51 -158 129 -285 251 -413 141 -146 304
-243 500 -295 86 -23 117 -27 267 -27 94 -1 179 3 190 7 16 7 12 12 -32 37
-29 17 -66 47 -83 68 l-31 39 -107 6 c-217 12 -410 98 -567 252 -122 120 -190
228 -238 382 -144 455 89 945 533 1122 68 26 205 61 245 61 13 0 15 -56 15
-495 l0 -495 64 0 65 0 24 78 c13 42 20 79 15 80 -4 2 -8 226 -8 498 l0 494
-102 -1 c-60 0 -141 -8 -193 -19z"/>
<path d="M1921 1213 c28 -38 53 -74 56 -80 3 -8 24 -13 53 -13 l47 0 -8 -51
c-8 -52 -8 -52 49 -135 38 -55 59 -78 64 -69 20 34 49 192 55 298 l6 117 -186
0 -186 0 50 -67z"/>
<path d="M1348 1253 c-15 -17 -68 -177 -68 -204 0 -8 28 -49 62 -91 44 -56 67
-78 84 -78 12 0 59 13 104 29 l81 28 29 -63 c16 -35 31 -73 35 -85 6 -19 5
-20 -17 -8 -13 8 -56 13 -103 13 -66 0 -90 -4 -135 -26 -251 -119 -261 -459
-18 -594 l53 -29 428 -3 c418 -3 429 -2 465 18 60 34 87 82 87 154 l-1 61
-298 425 c-165 234 -308 435 -319 448 -20 22 -25 22 -237 22 -194 0 -219 -2
-232 -17z m688 -500 c186 -264 289 -419 292 -438 3 -22 -2 -36 -18 -50 -21
-19 -37 -20 -414 -20 l-392 0 -49 25 c-135 70 -163 243 -56 350 90 90 204 93
306 9 25 -20 49 -39 53 -41 5 -2 28 -50 52 -107 45 -106 73 -138 108 -127 10
4 24 18 30 31 10 22 -2 56 -108 300 -66 152 -120 280 -120 284 0 5 13 14 30
21 50 21 52 84 3 96 -27 7 -51 0 -209 -57 l-92 -33 -26 30 c-29 33 -30 42 -14
95 l11 39 163 0 162 0 288 -407z"/>
</g>
</svg>
