<?xml version="1.0" standalone="no"?>
<!DOCTYPE svg PUBLIC "-//W3C//DTD SVG 20010904//EN"
 "http://www.w3.org/TR/2001/REC-SVG-20010904/DTD/svg10.dtd">
<svg version="1.0" xmlns="http://www.w3.org/2000/svg"
 width="200.000000pt" height="200.000000pt" viewBox="0 0 200.000000 200.000000"
 preserveAspectRatio="xMidYMid meet">
<metadata>
Created by potrace 1.15, written by Peter Selinger 2001-2017
</metadata>
<g transform="translate(0.000000,200.000000) scale(0.100000,-0.100000)"
fill="#000000" stroke="none">
<path d="M845 1840 c-56 -13 -103 -38 -143 -74 -33 -30 -47 -36 -84 -36 -56 0
-140 -25 -188 -55 -47 -30 -106 -99 -120 -140 -7 -22 -23 -37 -55 -53 -132
-64 -205 -206 -176 -344 9 -40 9 -69 0 -118 -15 -84 0 -162 44 -227 34 -51
143 -139 217 -174 58 -28 194 -37 260 -16 44 14 46 13 90 -18 98 -70 232 -90
335 -51 44 17 45 17 97 -8 29 -14 75 -30 101 -37 42 -10 57 -22 109 -82 34
-39 88 -112 120 -161 33 -50 61 -93 63 -95 2 -2 40 22 84 53 l79 56 -44 125
c-24 70 -39 125 -33 125 6 0 37 24 68 54 31 30 75 71 98 91 23 20 56 64 73 97
25 52 30 73 30 135 0 60 4 80 23 111 36 57 47 98 47 176 0 90 -30 157 -98 224
-32 31 -57 67 -72 106 -45 113 -180 228 -305 261 -64 16 -198 20 -256 6 -32
-7 -43 -4 -79 20 -77 52 -194 72 -285 49z m156 -121 c53 -18 56 -26 24 -59
-48 -50 -105 -72 -164 -64 -42 5 -51 4 -51 -8 0 -9 -3 -35 -6 -60 l-6 -45 38
-6 39 -6 0 -73 c0 -40 4 -90 8 -111 l8 -39 52 7 c29 4 55 10 59 14 4 4 3 35
-3 70 -17 97 -6 123 99 219 102 93 139 107 255 100 157 -10 286 -111 322 -254
8 -31 21 -50 54 -75 24 -19 53 -46 64 -61 25 -34 34 -126 17 -169 l-13 -30
-53 52 c-62 61 -92 124 -103 214 -4 36 -9 66 -12 68 -2 2 -28 1 -56 -1 -50 -4
-53 -6 -53 -30 0 -31 16 -134 25 -163 6 -19 2 -19 -118 -13 l-124 7 -7 -53
c-4 -29 -5 -55 -2 -57 3 -3 67 -9 144 -13 163 -9 205 -23 270 -93 38 -43 42
-51 42 -100 0 -67 -40 -134 -99 -168 -23 -12 -50 -37 -60 -55 -22 -37 -58 -58
-113 -68 -21 -4 -38 -10 -38 -15 0 -4 13 -47 30 -97 27 -82 28 -87 8 -60 -13
17 -51 62 -86 102 -59 66 -66 72 -112 77 -27 3 -61 12 -74 19 l-26 13 82 64
c101 79 156 105 193 91 52 -20 63 -14 80 42 8 28 15 53 15 54 0 6 -94 24 -124
24 -62 0 -138 -37 -236 -116 -191 -154 -247 -179 -347 -149 -28 8 -65 28 -82
44 -31 29 -31 31 -31 126 0 90 16 155 38 155 4 0 18 9 30 18 l24 18 -29 47
c-15 26 -32 47 -37 47 -23 0 -89 -48 -108 -78 -18 -29 -22 -31 -37 -19 -23 20
-187 117 -197 117 -8 0 -64 -84 -64 -95 0 -2 45 -31 100 -65 116 -72 142 -102
148 -175 4 -51 4 -52 -28 -64 -18 -6 -58 -11 -89 -11 -58 0 -69 5 -184 82 -97
64 -129 167 -81 259 13 26 13 32 0 58 -9 16 -18 47 -22 70 -14 88 73 197 171
215 29 6 35 12 41 41 11 63 57 120 118 150 51 25 64 27 129 22 l72 -7 28 41
c49 72 161 107 248 78z"/>
</g>
</svg>
