<?xml version="1.0" standalone="no"?>
<!DOCTYPE svg PUBLIC "-//W3C//DTD SVG 20010904//EN"
 "http://www.w3.org/TR/2001/REC-SVG-20010904/DTD/svg10.dtd">
<svg version="1.0" xmlns="http://www.w3.org/2000/svg"
 width="97.000000pt" height="96.000000pt" viewBox="0 0 97.000000 96.000000"
 preserveAspectRatio="xMidYMid meet">
<metadata>
Created by potrace 1.15, written by Peter Selinger 2001-2017
</metadata>
<g transform="translate(0.000000,96.000000) scale(0.100000,-0.100000)"
fill="#000000" stroke="none">
<path d="M25 935 l-25 -24 0 -420 c0 -287 4 -428 11 -444 6 -14 22 -30 36 -36
16 -7 157 -11 443 -11 l419 0 28 24 28 24 0 437 0 437 -24 19 c-22 18 -45 19
-458 19 l-434 0 -24 -25z m260 -160 c14 -13 25 -36 25 -50 0 -33 -42 -75 -75
-75 -33 0 -75 42 -75 75 0 33 42 75 75 75 14 0 37 -11 50 -25z m435 -197 c72
-38 84 -73 89 -260 l3 -158 -71 0 -71 0 0 129 c0 143 -8 176 -44 193 -33 14
-79 -4 -95 -38 -6 -14 -11 -80 -11 -154 l0 -130 -70 0 -70 0 0 215 0 215 70 0
70 0 0 -29 0 -29 30 28 c48 45 105 51 170 18z m-420 -203 l0 -215 -70 0 -70 0
0 215 0 215 70 0 70 0 0 -215z"/>
</g>
</svg>
