<?xml version="1.0" standalone="no"?>
<!DOCTYPE svg PUBLIC "-//W3C//DTD SVG 20010904//EN"
 "http://www.w3.org/TR/2001/REC-SVG-20010904/DTD/svg10.dtd">
<svg version="1.0" xmlns="http://www.w3.org/2000/svg"
 width="97.000000pt" height="97.000000pt" viewBox="0 0 97.000000 97.000000"
 preserveAspectRatio="xMidYMid meet">
<metadata>
Created by potrace 1.15, written by Peter Selinger 2001-2017
</metadata>
<g transform="translate(0.000000,97.000000) scale(0.100000,-0.100000)"
fill="#000000" stroke="none">
<path d="M18 949 c-17 -17 -18 -54 -18 -464 0 -432 1 -446 20 -465 19 -19 33
-20 260 -20 l240 0 0 185 0 185 -65 0 -65 0 0 75 0 75 64 0 64 0 4 102 c2 70
7 103 15 106 7 2 13 8 13 13 0 14 33 49 46 49 7 0 14 6 16 12 3 9 34 13 104
13 l99 0 3 -55 c2 -53 -13 -100 -25 -72 -6 14 -63 17 -63 2 0 -5 -11 -10 -25
-10 -16 0 -25 -6 -25 -15 0 -8 -4 -15 -10 -15 -6 0 -10 -28 -10 -65 l0 -65 75
0 75 0 0 -50 c0 -27 -4 -50 -10 -50 -5 0 -10 -11 -10 -25 0 -24 -2 -25 -65
-25 l-65 0 0 -185 0 -185 135 0 c122 0 137 2 155 20 19 19 20 33 20 465 0 432
-1 446 -20 465 -19 19 -33 20 -467 19 -428 -1 -449 -2 -465 -20z"/>
</g>
</svg>
